<?xml version="1.0" standalone="no"?>
<!DOCTYPE svg PUBLIC "-//W3C//DTD SVG 1.1//EN" "http://www.w3.org/Graphics/SVG/1.1/DTD/svg11.dtd" >
<svg xmlns="http://www.w3.org/2000/svg">
<metadata>Generated by IcoMoon</metadata>
<defs>
<font id="travelicons" horiz-adv-x="1024">
<font-face units-per-em="1024" ascent="960" descent="-64" />
<missing-glyph horiz-adv-x="1024" />
<glyph unicode="&#x20;" horiz-adv-x="512" d="" />
<glyph unicode="&#xe900;" glyph-name="compass" d="M512 960c-282.743 0-512-229.257-512-512s229.257-512 512-512c282.742 0 512 229.258 512 512s-229.258 512-512 512zM512 22.856c-234.743 0-425.143 190.403-425.143 425.144 0 234.743 190.4 425.143 425.143 425.143s425.144-190.4 425.144-425.143c0-234.742-190.403-425.144-425.144-425.144zM738.744 694.971c-4.475 1.749-9.252 2.599-14.060 2.501-4.803-0.098-9.544-1.142-13.942-3.072l-309.714-135.543-135.429-309.713c-4.114-9.375-4.114-20.004 0-29.373 3.886-8.914 11.086-15.887 20.229-19.43 4.343-1.71 8.8-2.514 13.371-2.514 5.028 0 9.943 1.029 14.628 3.087l309.716 135.542 135.429 309.716c1.976 4.52 3.016 9.392 3.062 14.325 0.051 4.933-0.901 9.824-2.79 14.381s-4.675 8.686-8.202 12.138c-3.523 3.453-7.706 6.158-12.298 7.955zM586.056 422.4l29.942-29.942-48.456-48.456-29.942 29.942-176.457-77.261 77.143 176.459-29.143 29.257 48.457 48.457 29.143-29.143 176.573 77.143-77.261-176.457zM457.6 550.857l-48.457-48.457 29.143-29.257 129.256-129.14 48.456 48.456-158.397 158.399z" />
<glyph unicode="&#xe901;" glyph-name="night" d="M406.021 831.861c-34.528-9.532-67.768-23.723-98.77-42.308-61.831-37.065-112.44-90.219-146.43-153.792s-50.085-135.181-46.569-207.184c3.516-72.003 26.512-141.703 66.534-201.659 40.022-59.961 95.57-107.93 160.718-138.798 65.148-30.862 137.452-43.463 209.2-36.46 71.745 7.009 140.251 33.36 198.192 76.248 24.36 18.022 46.467 38.69 65.968 61.531-53.009-3.038-106.524 3.607-157.855 20.036-97.132 31.078-180.3 95.209-235.049 181.248-54.75 86.035-77.62 188.537-64.634 289.687 6.861 53.445 23.503 104.726 48.695 151.45zM518.664 959.595h13.099c23.39 0 44.396-14.316 52.946-36.086 8.556-21.77 2.913-46.556-14.222-62.478-55.218-51.309-90.711-120.344-100.309-195.108s7.306-150.526 47.773-214.118c40.467-63.596 101.939-110.995 173.732-133.967 71.788-22.972 149.362-20.059 219.227 8.232 21.259 8.607 45.614 3.607 61.759-12.692 16.151-16.293 20.929-40.687 12.123-61.872-35.567-85.589-93.707-159.915-168.209-215.057-74.502-55.137-162.571-89.014-254.821-98.025-92.247-9.006-185.21 7.196-268.971 46.876-83.762 39.686-155.18 101.359-206.638 178.449s-81.023 166.702-85.544 259.279c-4.521 92.576 16.173 184.643 59.875 266.38s108.771 150.078 188.268 197.733c79.497 47.655 170.439 72.837 263.125 72.859 2.28 0.001 4.547-0.136 6.787-0.405zM764.746 909c31.42 0 56.889-25.47 56.889-56.889 0-11.735 4.665-22.989 12.959-31.288 8.3-8.298 19.553-12.959 31.289-12.959 31.42 0 56.889-25.47 56.889-56.889s-25.469-56.889-56.889-56.889c-11.736 0-22.989-4.662-31.289-12.96-8.294-8.298-12.959-19.552-12.959-31.287 0-31.419-25.469-56.889-56.889-56.889s-56.889 25.47-56.889 56.889c0 11.735-4.659 22.989-12.959 31.287s-19.553 12.96-31.289 12.96c-31.414 0-56.889 25.47-56.889 56.889s25.475 56.889 56.889 56.889c11.736 0 22.989 4.661 31.289 12.959s12.959 19.553 12.959 31.288c0 31.419 25.469 56.889 56.889 56.889zM972.976 554.786c28.592-3.001 50.881-27.186 50.881-56.575s-22.289-53.575-50.881-56.575c-2.998-28.595-27.187-50.882-56.576-50.882s-53.572 22.287-56.576 50.882c-28.592 3.001-50.881 27.185-50.881 56.575s22.289 53.574 50.881 56.575c3.004 28.595 27.187 50.881 56.576 50.881s53.578-22.286 56.576-50.881z" />
<glyph unicode="&#xe902;" glyph-name="phone-01" horiz-adv-x="668" d="M528.473 960h-389.12c-76.963 0-139.353-62.39-139.353-139.353v0-745.294c0-76.963 62.39-139.353 139.353-139.353v0h389.12c76.963 0 139.353 62.39 139.353 139.353v0 745.294c0 76.963-62.39 139.353-139.353 139.353v0zM333.913 63.777c-35.408 0-64.111 28.704-64.111 64.111s28.704 64.111 64.111 64.111c35.408 0 64.111-28.704 64.111-64.111v0c-0.25-35.307-28.805-63.861-64.087-64.111h-0.024z" />
<glyph unicode="&#xe903;" glyph-name="contact" horiz-adv-x="1148" d="M426.773 920.375c-54.144 22.427-113.722 28.295-171.201 16.862s-110.277-39.654-151.717-81.095c-41.44-41.439-69.661-94.238-81.094-151.716s-5.565-117.058 16.862-171.202c22.427-54.144 60.407-100.422 109.135-132.981s106.018-49.938 164.622-49.938h296.313v296.312c0 58.605-17.379 115.895-49.938 164.623s-78.837 86.707-132.981 109.134zM253.85 945.895c59.192 11.774 120.545 5.731 176.302-17.364s103.413-62.206 136.943-112.386c33.529-50.18 51.425-109.175 51.425-169.527v-305.14h-305.141c-60.351 0-119.346 17.896-169.527 51.425s-89.291 81.186-112.386 136.942c-23.095 55.758-29.138 117.111-17.364 176.302s40.836 113.562 83.51 156.237c42.674 42.675 97.045 71.737 156.237 83.511zM163.016 651.032h42.961v-8.828h-42.961v8.828zM291.899 651.032h42.961v-8.828h-42.961v8.828zM420.782 651.032h42.961v-8.828h-42.961v8.828zM814.452 308.449c-4.076-7.861-6.728-19.029-6.728-31.605v-285.424c0-12.579 2.652-23.746 6.728-31.603 4.19-8.086 9.198-11.555 13.519-11.555h207.144c4.326 0 9.331 3.469 13.524 11.555 4.070 7.857 6.727 19.023 6.727 31.603v285.424c0 12.577-2.657 23.744-6.727 31.605-4.193 8.083-9.198 11.551-13.524 11.551h-207.144c-4.32 0-9.329-3.468-13.519-11.551zM806.615 312.512c4.735 9.135 12.058 16.315 21.356 16.315h207.144c9.304 0 16.622-7.18 21.363-16.315 4.846-9.355 7.715-21.974 7.715-35.669v-285.424c0-13.692-2.869-26.315-7.715-35.663-4.74-9.137-12.058-16.322-21.363-16.322h-207.144c-9.298 0-16.621 7.186-21.356 16.322-4.85 9.348-7.718 21.972-7.718 35.663v285.424c0 13.695 2.868 26.313 7.718 35.669zM1012.233 276.87v-268.925h-161.377v268.925h161.377zM844.676 283.049v-281.284h173.736v281.284h-173.736zM875.682 911.448c-13.155 0-23.819-10.664-23.819-23.819v-169.399c0-13.155 10.665-23.819 23.819-23.819h237.159c13.153 0 23.817 10.665 23.817 23.819v169.399c0 13.155-10.664 23.819-23.817 23.819h-237.159zM843.034 887.629c0 18.030 14.617 32.647 32.647 32.647h237.159c18.026 0 32.644-14.617 32.644-32.647v-169.399c0-18.030-14.618-32.647-32.644-32.647h-237.159c-18.030 0-32.647 14.617-32.647 32.647v169.399zM889.141 873.399c1.492 1.924 4.264 2.271 6.188 0.774l98.931-76.945 98.931 76.945c1.924 1.497 4.696 1.15 6.197-0.774 1.492-1.924 1.148-4.698-0.777-6.194l-101.641-79.053c-1.598-1.239-3.822-1.239-5.42 0l-101.641 79.053c-1.924 1.496-2.269 4.27-0.768 6.194z" />
<glyph unicode="&#xe904;" glyph-name="mails" horiz-adv-x="1351" d="M1257.45 960h-682.921c-47.932 0-86.713-38.89-86.713-86.822v-275.935h-401.103c-47.932 0-86.713-38.89-86.713-86.713v-487.816c0-47.932 38.781-86.713 86.713-86.713h682.921c47.932 0 86.713 38.781 86.713 86.713v275.935h401.103c47.932 0 86.713 38.89 86.713 86.713v487.816c0 47.932-38.781 86.822-86.713 86.822zM845.454 22.713c0-41.94-33.879-75.82-75.82-75.82h-682.921c-41.831 0-75.82 33.879-75.82 75.82v487.816c0 41.831 33.988 75.82 75.82 75.82h682.921c41.94 0 75.82-33.988 75.82-75.82v-487.816zM1333.27 385.362c0-41.831-33.988-75.82-75.82-75.82h-401.103v200.987c0 47.823-38.781 86.713-86.713 86.713h-270.924v275.935c0 41.94 33.879 75.929 75.82 75.929h682.921c41.831 0 75.82-33.988 75.82-75.929v-487.816zM618.975 827.751c1.852 2.397 5.229 2.832 7.626 0.98l289.334-225.062 289.334 225.062c2.397 1.852 5.774 1.416 7.626-0.98s1.416-5.774-0.98-7.626l-292.711-227.677c-1.961-1.525-4.684-1.525-6.645 0l-292.711 227.677c-2.288 1.852-2.723 5.229-0.871 7.626zM131.268 465.103c1.852 2.397 5.229 2.832 7.626 0.98l289.334-225.062 289.334 225.062c2.397 1.852 5.774 1.416 7.626-0.98s1.416-5.774-0.98-7.626l-292.711-227.677c-1.961-1.525-4.684-1.525-6.645 0l-292.711 227.677c-2.397 1.743-2.723 5.229-0.871 7.626z" />
<glyph unicode="&#xe905;" glyph-name="handsworld" horiz-adv-x="1067" d="M384-61.355h-223.061v20.139c0 10.496-4.352 20.224-13.056 28.757l-107.093 93.269c-26.709 24.491-40.789 55.466-40.789 89.684v372.309c0 19.285 17.92 41.557 39.936 49.664 12.117 4.437 35.584 8.192 57.003-16.896 10.325-13.568 16.811-31.403 18.859-51.712l12.544-256.512c3.243 6.571 7.851 11.435 13.739 14.677 18.261 9.813 41.813-1.195 42.837-1.707l177.408-111.36c13.739-7.68 21.675-21.333 21.675-37.12v-193.194zM169.472-52.821h205.995v184.49c0 12.715-6.4 23.552-17.493 29.781l-177.152 111.275c-0.085 0-20.48 9.387-34.731 1.621-7.595-4.096-12.373-12.544-14.251-25.088-3.243-22.613 6.4-46.165 25.259-61.355l80.469-65.28-5.376-6.656-89.344 72.363c-13.568 11.435-21.248 26.795-21.248 42.155l-14.336 292.693c-1.877 18.517-7.765 34.901-16.981 47.019-16.981 19.883-35.157 18.773-47.36 14.251-20.565-7.509-34.389-27.648-34.389-41.643v-372.309c0-31.744 13.141-60.587 37.973-83.284l107.179-93.44c10.496-10.411 15.787-22.101 15.787-34.987v-11.605zM909.397-61.355h-218.197v193.023c0 15.787 7.765 29.355 21.333 37.205l172.8 111.019c1.365 0.683 24.235 11.605 42.155 2.133 5.035-2.645 9.131-6.656 12.203-11.861l13.568 253.44c2.048 20.48 8.363 38.315 18.347 51.712 20.821 25.003 43.605 21.675 55.296 17.408 21.504-7.765 39.765-30.635 39.765-49.92v-372.309c0-34.219-13.739-65.194-39.765-89.599l-104.875-93.611c-8.277-8.363-12.544-18.005-12.544-28.587v-20.053h-0.085zM699.733-52.821h201.131v11.605c0 12.885 5.12 24.576 15.189 34.731l105.045 93.696c24.149 22.698 37.035 51.54 37.035 83.284v372.309c0 15.787-15.957 35.328-34.133 41.899-11.776 4.267-29.269 5.205-45.739-14.677-8.875-11.947-14.677-28.331-16.469-47.104l-15.104-280.747c0.085-3.755-0.085-7.509-0.597-11.179v-0.768c0-14.080-6.571-28.331-18.005-39.424-2.901-3.413-6.144-6.656-9.728-9.557l-80.384-65.195-5.376 6.571 87.381 72.363c0.683 0.597 1.28 1.195 1.963 1.792 8.533 10.155 14.080 22.443 15.787 35.157l0.597 10.411c-0.085 2.304-0.256 4.693-0.597 6.997-1.792 12.715-6.571 21.163-14.080 25.259-13.995 7.509-33.792-1.877-33.963-2.048l-172.544-110.933c-11.179-6.4-17.408-17.237-17.408-29.952v-184.49zM515.841 365.057c-0.768 0-1.621 0.256-2.304 0.683-1.963 1.28-2.475 3.925-1.195 5.888 0.768 1.109 1.451 2.304 2.133 3.584 1.963 3.413 4.096 6.997 7.424 9.728 12.203 10.923 17.408 32.341 12.117 50.944-2.901 10.325-11.605 28.331-36.523 32.683-12.971 2.219-26.709 1.621-39.936 1.109-7.168-0.256-14.592-0.597-21.931-0.512l-11.008 0.171c-18.176 0.256-36.949 0.512-55.296 1.963-15.36 1.195-26.197 13.312-25.771 28.672 0.427 13.995 10.155 24.064 24.064 25.259l4.779 0.427c9.472 0.939 19.285 1.963 28.843 1.28 12.032-0.853 25.685 5.717 35.499 17.067 8.533 9.813 12.373 21.333 10.411 30.891-5.12 25.003-24.832 40.533-51.371 40.533h-139.093c-2.389 0-4.267 1.877-4.267 4.267s1.877 4.267 4.267 4.267h139.008c30.379 0 53.845-18.603 59.733-47.36 2.56-12.288-1.877-26.283-12.288-38.229-11.605-13.312-27.904-20.992-42.496-20.053-8.875 0.597-17.92-0.341-27.477-1.28l-4.864-0.512c-11.691-0.939-16.043-9.728-16.299-16.981-0.256-10.837 7.083-19.029 17.92-19.883 18.091-1.451 36.693-1.707 54.699-1.963l11.008-0.171c7.083-0.171 14.336 0.171 21.419 0.427 13.739 0.597 27.904 1.109 41.813-1.195 21.589-3.755 37.376-17.92 43.264-38.741 6.229-21.931 0.171-46.507-14.763-59.733-2.219-1.877-3.84-4.608-5.547-7.509-0.768-1.365-1.536-2.645-2.389-3.925-0.853-1.109-2.219-1.792-3.584-1.792zM538.111 356.949c-164.267 0-297.813 135.253-297.813 301.483s133.547 301.568 297.813 301.568c164.267 0 297.813-135.253 297.813-301.483s-133.632-301.568-297.813-301.568zM538.111 951.467c-159.488 0-289.28-131.413-289.28-292.949s129.792-292.949 289.28-292.949c159.488 0 289.28 131.413 289.28 292.949s-129.792 292.949-289.28 292.949zM817.748 568.065c-30.123 0-66.56 12.032-70.229 45.995l-0.171 1.365c-3.328 23.893-6.827 48.64-27.989 54.784-15.104 2.816-32.512 2.987-49.323 3.157-43.691 0.341-88.832 0.768-109.739 48.469-11.52 34.901 4.523 68.181 25.515 85.845 18.944 11.52 40.704 11.52 61.781 11.52 9.984 0 19.285 6.485 27.733 19.2 8.619 17.493 22.443 39.253 51.029 47.445 2.304 0.683 4.608-0.683 5.291-2.901 0.683-2.304-0.683-4.608-2.901-5.291-19.797-5.717-33.963-19.115-45.995-43.52-10.155-15.531-22.187-23.467-35.072-23.467-20.821 0-40.533 0-56.832-9.899-18.176-15.445-32.597-45.141-22.443-75.947 18.603-42.325 59.051-42.667 101.888-43.008 17.152-0.171 34.901-0.256 51.2-3.413 26.88-7.765 30.891-36.523 34.475-61.867l0.171-1.536c3.157-28.501 35.243-38.571 61.781-38.571 2.389 0 4.267-1.877 4.267-4.267s-2.048-4.096-4.437-4.096zM345.344 852.992c-3.84 0-7.168 1.28-10.411 2.56-1.024 0.427-2.048 0.853-3.157 1.195-2.219 0.768-3.413 3.157-2.645 5.376s3.157 3.413 5.376 2.645c1.195-0.427 2.389-0.853 3.499-1.28 2.731-1.024 5.035-1.963 7.253-1.963 23.381 0.171 46.677 0.512 70.059 0.853 23.552 0.341 47.104 0.683 70.571 0.853 22.699 0.341 39.68 16.725 41.301 40.021 1.536 22.357-12.715 32.853-29.269 45.056l1.877 3.925 3.157 2.987c16.981-12.544 34.56-25.515 32.683-52.48-1.877-27.819-22.357-47.531-49.749-47.957-23.552-0.171-47.019-0.512-70.571-0.853-23.211-0.427-46.592-0.768-69.973-0.939z" />
<glyph unicode="&#xe906;" glyph-name="article" horiz-adv-x="1088" d="M997.44 896v-870.080h-933.44v870.080h933.44zM997.44 960h-933.44c-35.2 0-64-28.8-64-64v-870.080c0-35.2 28.8-64 64-64h933.44c35.2 0 64 28.8 64 64v870.080c0 35.2-28.8 64-64 64zM812.48 677.44h-563.52v64h563.52v-64zM812.48 428.8h-563.52v64h563.52v-64zM643.2 180.48h-394.24v64h394.24v-64z" />
<glyph unicode="&#xe907;" glyph-name="bag" horiz-adv-x="967" d="M284.512 884.094c-48.602-48.602-75.906-114.521-75.906-183.254v-44.246h-94.815c-29.587 0-54.235-22.68-56.693-52.165l-50.568-606.817c-1.321-15.849 4.057-31.534 14.829-43.241s25.954-18.369 41.863-18.369h809.089c15.906 0 31.090 6.662 41.859 18.369 10.775 11.708 16.151 27.392 14.831 43.241l-50.569 606.817c-2.458 29.485-27.102 52.165-56.69 52.165h-94.817v44.246c0 68.734-27.307 134.653-75.907 183.254s-114.52 75.906-183.254 75.906c-68.734 0-134.652-27.304-183.254-75.906zM208.605 542.815v-44.247c0-31.419 25.47-56.889 56.889-56.889s56.889 25.47 56.889 56.889v44.247h290.765v-44.247c0-31.419 25.469-56.889 56.889-56.889s56.889 25.47 56.889 56.889v44.247h42.468l41.091-493.037h-685.435l41.086 493.037h42.47zM613.148 656.593h-290.765v44.246c0 38.558 15.317 75.537 42.581 102.802s64.243 42.581 102.801 42.581c38.558 0 75.536-15.317 102.802-42.581 27.267-27.265 42.581-64.243 42.581-102.802v-44.246z" />
<glyph unicode="&#xe908;" glyph-name="building" horiz-adv-x="1126" d="M1024 38.4h102.4v-102.4h-1126.4v102.4h102.4v870.4c0 13.579 5.394 26.602 14.996 36.204s22.625 14.996 36.204 14.996h819.2c13.578 0 26.604-5.394 36.204-14.996s14.996-22.625 14.996-36.204v-870.4zM921.6 38.4v819.2h-716.8v-819.2h716.8zM358.4 499.2h153.6v-102.4h-153.6v102.4zM358.4 704h153.6v-102.4h-153.6v102.4zM358.4 294.4h153.6v-102.4h-153.6v102.4zM614.4 294.4h153.6v-102.4h-153.6v102.4zM614.4 499.2h153.6v-102.4h-153.6v102.4zM614.4 704h153.6v-102.4h-153.6v102.4z" />
<glyph unicode="&#xe909;" glyph-name="calendar" horiz-adv-x="1095" d="M997.517 837.826h-164.899v122.174h-70.621v-122.174h-457.622v122.174h-70.621v-122.174h-163.134c-38.841 0-70.621-31.779-70.621-70.621v-743.283c0-38.841 31.779-70.621 70.621-70.621h926.897c38.841 0 70.621 31.779 70.621 70.621v743.283c0 39.194-31.426 70.621-70.621 70.621zM997.517 23.923h-926.897v672.662h926.897v-672.662z" />
<glyph unicode="&#xe90a;" glyph-name="chat" horiz-adv-x="1065" d="M931.84 893.216c17.654 0 34.583-7.036 47.063-19.56 12.485-12.525 19.497-29.511 19.497-47.224v-534.272c0-17.711-7.012-34.697-19.497-47.223-12.481-12.526-29.409-19.562-47.063-19.562h-166.4c-20.664 0-41.050-4.825-59.531-14.098-18.485-9.273-34.566-22.741-46.965-39.326l-126.464-169.165-126.464 169.165c-12.4 16.585-28.479 30.052-46.963 39.326s-38.867 14.098-59.533 14.098h-166.4c-17.653 0-34.583 7.037-47.065 19.562s-19.495 29.512-19.495 47.223v534.272c0 17.712 7.012 34.699 19.495 47.224s29.412 19.56 47.065 19.56h798.72zM133.12 960c-35.305 0-69.165-14.072-94.13-39.121s-38.99-59.023-38.99-94.447v-534.272c0-35.426 14.025-69.399 38.99-94.446 24.965-25.051 58.825-39.121 94.13-39.121h166.4c10.333 0 20.524-2.417 29.766-7.053s17.282-11.366 23.482-19.661l126.464-169.165c6.201-8.294 14.238-15.028 23.482-19.665 9.241-4.637 19.431-7.049 29.766-7.049s20.525 2.413 29.766 7.049c9.245 4.637 17.281 11.37 23.482 19.665l126.464 169.165c6.201 8.294 14.238 15.024 23.482 19.661 9.241 4.637 19.431 7.053 29.766 7.053h166.4c35.308 0 69.165 14.070 94.13 39.121 24.965 25.047 38.99 59.019 38.99 94.446v534.272c0 35.424-14.025 69.398-38.99 94.447s-58.823 39.121-94.13 39.121h-798.72z" />
<glyph unicode="&#xe90b;" glyph-name="chevron" horiz-adv-x="1638" d="M1435.43 960l-616.23-617.333-616.23 617.333-202.97-203.333 819.2-820.667 819.2 820.667-202.97 203.333z" />
<glyph unicode="&#xe90c;" glyph-name="circlecheck" horiz-adv-x="983" d="M491.52 960c-271.466 0-491.52-229.24-491.52-512s220.070-512 491.52-512 491.52 229.241 491.52 512c0 282.76-220.070 512-491.52 512zM377.242 140.8l-0.328 0.34-0.279-0.34-229.179 245.76 115.163 122.266 114.311-122.606 344.064 368.963 114.59-122.846-458.342-491.537z" />
<glyph unicode="&#xe90d;" glyph-name="close" d="M435.785 447.996l-419.996 419.996 76.219 76.219 419.996-419.996 419.997 419.996 76.218-76.219-419.996-419.996 419.996-419.997-76.218-76.218-419.997 419.996-419.996-419.996-76.219 76.218 419.996 419.997z" />
<glyph unicode="&#xe90e;" glyph-name="emptystar" horiz-adv-x="1126" d="M563.2 813.3l-72.294-215.867c-13.872-41.424-52.494-69.485-96.177-69.878l-227.642-2.048 182.961-135.465c35.11-25.993 49.862-71.397 36.738-113.063l-68.397-217.132 185.372 132.147c35.57 25.354 83.309 25.354 118.883 0l185.371-132.147-68.396 217.132c-13.124 41.667 1.628 87.071 36.734 113.063l182.961 135.465-227.642 2.048c-43.68 0.393-82.302 28.457-96.177 69.878l64.734 21.679c4.625-13.808 17.5-23.161 32.058-23.294l329.561-2.966c32.751-0.294 46.326-42.073 20.002-61.563l-264.875-196.113c-11.701-8.663-16.62-23.798-12.244-37.687l99.017-314.344c9.841-31.242-25.702-57.064-52.371-38.048l-268.363 191.307c-11.858 8.451-27.771 8.451-39.629 0l-268.361-191.307c-26.671-19.016-62.211 6.806-52.37 38.048l99.017 314.344c4.375 13.889-0.543 29.024-12.245 37.687l-264.874 196.113c-26.324 19.49-12.749 61.269 20.003 61.563l329.558 2.966c14.561 0.133 27.436 9.486 32.058 23.294l104.663 312.511c10.4 31.058 54.33 31.058 64.734 0l104.66-312.511-64.734-21.679-72.294 215.867z" />
<glyph unicode="&#xe90f;" glyph-name="facebook" horiz-adv-x="512" d="M126.161-19.917v440.45h-116.888v158.583h116.888v135.451c0 106.438 69.046 204.183 228.143 204.183 64.416 0 112.050-6.153 112.050-6.153l-3.754-148.090c0 0-48.578 0.472-101.588 0.472-57.372 0-66.565-26.344-66.565-70.068v-115.795h172.712l-7.514-158.583h-165.198v-440.45h-168.286z" />
<glyph unicode="&#xe910;" glyph-name="family" horiz-adv-x="1755" d="M1493.826 343.033c44.654 31.653 81.101 73.057 106.079 120.964 25.147 47.906 38.151 100.775 38.327 154.669 0.168 187.691-157.923 341.334-350.917 341.334s-351.086-153.642-351.086-341.334c0-33.192 5.135-65.358 14.204-95.642-23.786 7.699-49.276 11.805-75.454 11.805-24.13 0-47.565-3.593-69.639-10.094 9.070 30.455 13.861 62.108 13.861 93.931 0 187.691-157.92 341.334-351.086 341.334s-351.086-153.642-351.086-341.334c0-112.922 57.146-213.355 144.404-275.633-154.156-74.255-261.432-228.579-261.432-407.033h117.029c0 189.060 156.551 341.334 351.086 341.334 59.199 0 114.804-14.372 163.738-39.523 9.581-47.391 32.679-89.828 65.015-123.357-74.597-39.183-134.993-101.8-170.752-178.454h161.856c45.513 52.356 112.41 85.548 187.008 85.548s141.495-33.192 187.004-85.548h161.858c-35.76 76.478-96.161 139.271-170.752 178.454 31.649 32.848 54.579 74.255 64.497 120.448 50.308 27.033 108.134 42.432 169.728 42.432 194.531 0 351.086-152.274 351.086-341.334h117.029c0 178.454-107.279 332.779-261.603 407.033zM234.057 618.666c0 126.439 104.025 227.555 234.057 227.555s234.057-101.116 234.057-227.555c0-126.438-104.025-227.555-234.057-227.555s-234.057 101.117-234.057 227.555zM746.657 286.743c0 70.833 57.49 128.321 128.322 128.321s128.322-57.488 128.322-128.321c0-70.833-57.49-128.323-128.322-128.323s-128.322 57.659-128.322 128.323zM1287.314 391.111c-130.033 0-234.057 101.117-234.057 227.555s104.024 227.555 234.057 227.555c130.033 0 234.057-101.116 234.057-227.555s-104.024-227.555-234.057-227.555z" />
<glyph unicode="&#xe911;" glyph-name="fence" horiz-adv-x="1434" d="M1353.953 242.374h-79.64v306.37h79.64c21.129 0 41.383 8.070 56.32 22.434s23.327 33.845 23.327 54.159c0 20.313-8.39 39.795-23.327 54.159s-35.191 22.433-56.32 22.433h-79.64v153.186l-44.285 85.018c-3.516 6.026-8.636 11.043-14.841 14.534-6.199 3.492-13.257 5.332-20.439 5.332-7.188 0-14.247-1.84-20.446-5.332s-11.325-8.508-14.841-14.534l-44.442-85.018v-153.186h-159.287v153.186l-44.285 85.018c-3.516 6.026-8.636 11.043-14.834 14.534-6.205 3.492-13.257 5.332-20.446 5.332s-14.24-1.84-20.446-5.332c-6.199-3.492-11.319-8.508-14.834-14.534l-44.442-85.018v-153.186h-159.291v153.186l-44.282 85.018c-3.517 6.026-8.639 11.043-14.84 14.534s-13.257 5.332-20.443 5.332c-7.185 0-14.241-1.84-20.442-5.332s-11.323-8.508-14.84-14.534l-44.442-85.018v-153.186h-159.289v153.186l-44.283 85.018c-3.517 6.026-8.639 11.043-14.84 14.534s-13.257 5.332-20.442 5.332c-7.186 0-14.242-1.84-20.443-5.332s-11.323-8.508-14.84-14.534l-44.442-85.018v-153.186h-79.644c-21.123 0-41.381-8.069-56.317-22.433s-23.327-33.846-23.327-54.159c0-20.314 8.391-39.796 23.327-54.159s35.194-22.434 56.317-22.434h79.644v-306.37h-79.644c-21.123 0-41.381-8.069-56.317-22.432-14.936-14.37-23.327-33.847-23.327-54.163s8.391-39.793 23.327-54.156c14.936-14.37 35.194-22.439 56.317-22.439h79.644v-76.588c0-20.316 8.391-39.799 23.327-54.163s35.194-22.432 56.317-22.432c21.123 0 41.381 8.069 56.317 22.432s23.327 33.847 23.327 54.163v76.588h159.289v-76.588c0-20.316 8.391-39.799 23.327-54.163s35.194-22.432 56.317-22.432c21.123 0 41.381 8.069 56.317 22.432s23.327 33.847 23.327 54.163v76.588h159.291v-76.588c0-20.316 8.39-39.799 23.327-54.163s35.191-22.432 56.313-22.432c21.129 0 41.383 8.069 56.32 22.432s23.327 33.847 23.327 54.163v76.588h159.287v-76.588c0-20.316 8.39-39.799 23.327-54.163s35.198-22.432 56.32-22.432c21.122 0 41.383 8.069 56.32 22.432s23.327 33.847 23.327 54.163v76.588h79.64c21.129 0 41.383 8.069 56.32 22.439 14.937 14.363 23.327 33.84 23.327 54.156s-8.39 39.793-23.327 54.163c-14.937 14.363-35.191 22.432-56.32 22.432zM318.578 242.374v306.37h159.289v-306.37h-159.289zM637.155 242.374v306.37h159.291v-306.37h-159.291zM955.733 242.374v306.37h159.287v-306.37h-159.287z" />
<glyph unicode="&#xe912;" glyph-name="friends" horiz-adv-x="1755" d="M468.114 960c-193.097 0-351.086-153.6-351.086-341.334 0-112.867 57.168-213.333 144.472-275.569-154.302-74.411-261.5-228.694-261.5-407.097h117.029c0 189.096 156.584 341.334 351.086 341.334s351.086-152.237 351.086-341.334h117.029c0 189.096 156.584 341.334 351.086 341.334s351.086-152.237 351.086-341.334h117.029c0 178.461-107.198 332.686-261.5 407.097 44.676 31.65 81.042 73.099 106.145 120.981s38.232 100.846 38.327 154.588c0 187.734-157.989 341.334-351.086 341.334s-351.086-153.6-351.086-341.334c0-112.867 57.168-213.333 144.472-275.569-85.497-40.866-156.262-105.937-202.986-186.652-46.724 80.715-117.489 145.785-202.986 186.652 44.676 31.65 81.042 73.099 106.145 120.981s38.232 100.846 38.327 154.588c0 187.734-157.989 341.334-351.086 341.334zM468.114 846.222c130.077 0 234.057-101.091 234.057-227.555s-103.98-227.555-234.057-227.555c-130.077 0-234.057 101.091-234.057 227.555s103.98 227.555 234.057 227.555zM1287.314 846.222c130.077 0 234.057-101.091 234.057-227.555s-103.98-227.555-234.057-227.555c-130.077 0-234.057 101.091-234.057 227.555s103.98 227.555 234.057 227.555z" />
<glyph unicode="&#xe913;" glyph-name="geomia" horiz-adv-x="3825" d="M434.176 609.059v49.765h135.529v-451.058c0-87.529-27.881-154.412-83.647-200.647-55.764-46.237-127.411-69.353-214.941-69.353-110.47 0-195.706 34.411-255.706 103.236v11.646l69.353 85.765h12.176c19.765-23.647 45.176-42.529 76.235-56.647 30.706-14.118 63.706-21.177 99-21.177 41.294 0 75.529 9.883 102.706 29.648s40.766 49.235 40.766 88.412v33.352c-44.118-32.47-95.118-48.705-153.001-48.705-73.412 0-134.823 24.175-184.235 72.529-49.059 48-73.588 108.353-73.588 181.058 0 73.059 24.529 133.941 73.588 182.647 49.412 48.352 110.823 72.529 184.235 72.529 64.941 0 122.118-21 171.529-63zM206 323.706c23.999-24.353 54.882-36.53 92.646-36.53s68.471 12.177 92.118 36.53c23.647 23.647 35.471 54.882 35.471 93.707 0 37.765-12 69.176-36 94.235-24.353 24.353-55.236 36.528-92.648 36.528-37.765 0-68.471-12.175-92.118-36.528-23.999-25.059-36-56.471-36-94.235 0-38.825 12.177-70.060 36.53-93.707zM1236.765 350.706h-402.352c3.882-40.236 19.058-70.766 45.529-91.589 27.177-21.176 60-31.764 98.471-31.764 62.118 0 112.059 19.941 149.823 59.823h11.646l75.177-71.999v-12.707c-27.529-32.47-63.706-57.177-108.529-74.118-43.059-16.587-88.236-24.882-135.529-24.882-85.765 0-157.059 26.294-213.883 78.883-56.823 52.588-85.234 120.706-85.234 204.353 0 82.235 27.177 150.353 81.528 204.353 54.001 53.999 123.177 81 207.53 81 80.117 0 146.647-25.412 199.588-76.235 52.941-52.941 79.411-120.177 79.411-201.705 0-15.53-1.059-30-3.176-43.412zM956.705 553.47c-32.822 0-60.175-9.705-82.059-29.118-21.882-19.058-34.941-45-39.176-77.824h241.411c-4.235 30.354-15.352 54.53-33.352 72.531-21.882 22.941-50.824 34.411-86.825 34.411zM1821.229 184.471c-56.817-53.999-128.467-81-214.935-81-86.829 0-158.648 27-215.471 81s-85.236 121.764-85.236 203.294 28.411 149.295 85.236 203.294c56.823 53.999 128.642 81 215.471 81 86.468 0 158.118-27 214.935-81 56.124-53.999 84.179-121.764 84.179-203.294s-28.055-149.295-84.179-203.294zM1509.948 286.648c25.058-26.472 57.163-39.707 96.346-39.707 38.822 0 70.942 13.413 96.346 40.236 25.419 26.47 38.129 60 38.129 100.588 0 40.236-12.71 73.942-38.129 101.117-25.404 26.472-57.525 39.707-96.346 39.707-39.183 0-71.288-13.235-96.346-39.707-25.419-27.175-38.124-60.881-38.124-101.117 0-41.647 12.705-75.353 38.124-101.117zM2673.062 672.059c67.057 0 121.239-21.353 162.53-64.059 41.291-43.059 61.937-99.882 61.937-170.47v-320.824h-167.816v309.176c0 31.765-8.297 57.001-24.892 75.707-16.58 18.706-39.349 28.059-68.292 28.059-29.289 0-53.293-9.529-71.996-28.589-18.703-19.411-28.055-44.47-28.055-75.177v-309.176h-167.831v309.176c0 32.119-8.478 57.353-25.419 75.707-16.58 18.706-39.529 28.059-68.819 28.059-29.651 0-53.64-9.529-71.996-28.589-17.995-19.058-27-44.116-27-75.177v-309.176h-167.831v542.118h140.83v-68.295c43.415 54.353 100.232 81.53 170.466 81.53 74.481 0 131.479-26.118 171.008-78.353 46.938 52.235 108.002 78.353 183.176 78.353zM3216.76 847.294c0-28.235-10.059-52.411-30.178-72.53-20.119-20.117-44.634-30.176-73.577-30.176-29.304 0-53.655 10.059-73.065 30.176-20.119 20.119-30.178 44.294-30.178 72.53 0 28.941 10.059 53.647 30.178 74.118 19.411 20.118 43.761 30.176 73.065 30.176 28.943 0 53.459-10.059 73.577-30.176 20.119-20.471 30.178-45.176 30.178-74.118zM3196.115 116.706h-166.761v542.118h166.761v-542.118zM3556.653 672.059c75.174 0 136.584-18.53 184.23-55.588 47.646-37.412 71.469-95.294 71.469-173.648v-326.117h-135.529v50.824c-47.992-42.705-105.005-64.059-170.993-64.059-63.533 0-115.064 16.059-154.594 48.176-39.529 31.765-59.302 73.236-59.302 124.411 0 56.118 21.353 100.765 64.060 133.942 43.068 33.528 99.358 50.293 168.885 50.293 41.653 0 85.775-8.647 132.352-25.94v24.882c0 27.177-11.64 48.882-34.936 65.117-24.004 16.589-53.82 24.883-89.464 24.883-50.824 0-94.946-14.824-132.367-44.472h-12.168l-54.001 84.706v13.235c27.528 21.883 62.298 39.001 104.297 51.354 40.584 12 79.932 18 118.061 18zM3544.471 209.882c32.12 0 59.467 9.529 82.056 28.588 22.588 18.354 33.882 40.236 33.882 65.647v29.648c-39.529 18-76.228 26.999-110.11 26.999-30.359 0-54.709-7.058-73.065-21.176-17.995-14.118-27-32.824-27-56.118 0-22.234 8.644-40.058 25.946-53.471 17.288-13.411 40.056-20.117 68.292-20.117z" />
<glyph unicode="&#xe914;" glyph-name="heart" horiz-adv-x="1205" d="M29.146 750.152c18.692 41.065 45.644 78.278 79.347 109.555 33.728 31.371 73.495 56.3 117.137 73.433 45.255 17.837 93.793 26.966 142.796 26.859 68.749 0 135.824-17.862 194.114-51.602 13.944-8.071 27.193-16.936 39.743-26.595 12.55 9.659 25.796 18.524 39.746 26.595 58.29 33.74 125.362 51.602 194.108 51.602 49.507 0 97.479-8.997 142.8-26.859 43.785-17.201 83.251-41.943 117.14-73.433 33.744-31.242 60.705-68.463 79.342-109.555 19.384-42.737 29.286-88.12 29.286-134.826 0-44.060-9.481-89.972-28.311-136.679-15.758-39.032-38.346-79.52-67.211-120.404-45.743-64.704-108.634-132.179-186.723-200.588-129.41-113.387-257.566-191.717-263.005-194.891l-33.045-20.113c-14.643-8.867-33.47-8.867-48.112 0l-33.049 20.113c-5.439 3.307-133.453 81.504-263.002 194.891-78.092 68.409-140.984 135.885-186.723 200.588-28.866 40.885-51.596 81.372-67.214 120.404-18.826 46.706-28.308 92.618-28.308 136.679-0.139 46.706 9.761 92.090 29.145 134.826zM602.284 47.309c0 0 496.438 301.803 496.438 568.016 0 134.826-117.555 244.116-262.584 244.116-101.936 0-190.344-53.983-233.854-132.842-43.508 78.858-131.919 132.842-233.857 132.842-145.027 0-262.583-109.29-262.583-244.116 0-266.213 496.44-568.016 496.44-568.016z" />
<glyph unicode="&#xe915;" glyph-name="inbox" d="M332.955 616.106c-5.297-5.33-8.272-12.538-8.272-20.053s2.975-14.723 8.272-20.053l164.125-164.979 164.692 164.694c4.66 5.442 7.096 12.44 6.818 19.601-0.275 7.158-3.242 13.949-8.309 19.014-5.065 5.068-11.856 8.035-19.014 8.309-7.161 0.277-14.159-2.158-19.601-6.818l-96.141-95.856v411.591c0 7.544-2.997 14.779-8.332 20.113s-12.57 8.331-20.113 8.331c-7.545 0-14.781-2.997-20.113-8.331-5.335-5.334-8.332-12.569-8.332-20.113v-412.445l-96.144 96.144c-5.192 5.242-12.218 8.262-19.596 8.422-7.378 0.157-14.528-2.555-19.941-7.57zM830.919 710.244h-216.134v-49.951h201.726v-349.659h-155.328l-2.882-22.228c-4.353-33.028-22.575-63.513-51.195-85.644-28.617-22.133-65.633-34.364-103.991-34.364-38.355 0-75.371 12.231-103.991 34.364-28.62 22.131-46.842 52.616-51.193 85.644l-2.882 22.228h-162.534v349.659h201.726v49.951h-216.135c-11.465 0-22.46-3.946-30.566-10.972s-12.661-16.556-12.661-26.492v-624.39c0-9.935 4.554-19.466 12.661-26.492s19.102-10.972 30.566-10.972h662.813c11.466 0 22.461 3.946 30.568 10.972 8.105 7.026 12.66 16.556 12.66 26.492v624.39c0 9.935-4.556 19.466-12.66 26.492-8.107 7.026-19.101 10.972-30.568 10.972zM816.51 60.878h-633.996v199.805h112.678c11.102-40.595 37.683-76.755 75.441-102.63 37.761-25.875 84.487-39.953 132.625-39.953s94.865 14.079 132.625 39.953c37.758 25.875 64.34 62.034 75.441 102.63h105.185v-199.805z" />
<glyph unicode="&#xe916;" glyph-name="magnifier" horiz-adv-x="1073" d="M413.578 941.714c97.88 0 191.747-37.567 260.96-104.437 69.208-66.87 108.091-157.565 108.091-252.134 0-88.32-33.499-169.506-88.571-232.043l15.331-14.814h44.851l283.887-274.286-85.163-82.286-283.887 274.286v43.34l-15.331 14.809c-66.965-55.228-152.123-85.572-240.167-85.577-97.879 0-191.748 37.566-260.959 104.438-69.211 66.867-108.093 157.564-108.093 252.133s38.882 185.264 108.093 252.134c69.211 66.87 163.080 104.437 260.959 104.437zM413.578 832c-141.943 0-255.497-109.714-255.497-246.857s113.554-246.857 255.497-246.857c141.942 0 255.498 109.714 255.498 246.857s-113.557 246.857-255.498 246.857z" />
<glyph unicode="&#xe917;" glyph-name="marker" horiz-adv-x="947" d="M477.949-57.344c-17.408 0-34.304 3.328-50.432 9.728-16.128 6.656-30.464 15.872-42.752 28.16l-226.559 221.696c-63.488 62.208-106.496 140.8-123.904 227.328-17.664 86.528-8.704 175.104 25.856 256.512 34.304 81.408 92.16 150.272 166.656 199.168s161.535 74.752 251.135 74.752c89.6 0 176.384-25.856 251.136-74.752s132.352-117.76 166.656-199.168c34.304-81.408 43.264-170.24 25.856-256.512s-60.416-164.864-123.904-227.328l-226.304-221.696c-12.288-12.032-26.88-21.504-42.752-28.16-16.384-6.4-33.28-9.728-50.688-9.728zM477.949 908.8c-79.616 0-156.928-23.040-222.975-66.304s-117.248-104.192-147.712-176.128c-30.464-71.936-38.144-150.272-22.784-226.56 15.616-76.288 53.504-145.92 109.568-200.96l226.303-221.696c7.424-7.424 16.384-13.312 26.368-17.152 19.968-7.936 42.496-7.936 62.464 0 9.984 4.096 18.688 9.728 26.368 17.152l226.304 221.696c56.32 55.040 94.208 124.672 109.568 200.96 15.616 76.288 7.68 154.624-22.784 226.56s-81.408 132.864-147.712 176.128c-66.304 43.264-143.36 66.304-222.976 66.304zM477.949 333.824c-49.408 0-96 18.944-131.072 53.248-34.56 34.048-54.528 81.152-54.528 129.024 0 48.128 19.968 95.232 54.528 129.024 35.072 34.304 81.664 53.248 131.072 53.248s96-18.944 131.072-53.248c34.56-34.048 54.528-81.152 54.528-129.28s-19.968-95.232-54.528-129.28c-35.072-33.792-81.664-52.736-131.072-52.736zM477.949 647.424c-35.584 0-70.144-14.080-95.232-38.656-25.344-24.832-39.168-57.6-39.168-92.672s13.824-67.84 39.168-92.672c25.344-24.832 59.136-38.656 95.232-38.656 35.584 0 70.144 14.080 95.232 38.656 25.344 24.832 39.168 57.6 39.168 92.672 0 34.816-13.824 67.84-39.168 92.672-25.088 24.576-59.648 38.656-95.232 38.656z" />
<glyph unicode="&#xe918;" glyph-name="mountain" horiz-adv-x="1463" d="M1451.447 48.662l-365.714 585.142c-6.561 10.585-15.711 19.319-26.595 25.376-10.876 6.058-23.128 9.236-35.577 9.236-12.456 0-24.7-3.179-35.577-9.236-10.884-6.057-20.034-14.792-26.595-25.376l-73.143-119.223-240.641 409.6c-6.476 10.915-15.681 19.956-26.71 26.236s-23.502 9.582-36.193 9.582c-12.692 0-25.165-3.302-36.193-9.582s-20.234-15.322-26.71-26.236l-512-877.714c-6.401-11.088-9.781-23.662-9.8-36.462s3.322-25.388 9.689-36.491c6.368-11.11 15.539-20.348 26.596-26.8s23.615-9.889 36.417-9.962h1316.573c13.071-0.029 25.907 3.452 37.179 10.064 11.264 6.619 20.56 16.135 26.902 27.553 6.349 11.425 9.523 24.342 9.187 37.405-0.336 13.071-4.169 25.805-11.096 36.886zM617.617 83.039h-417.646l384.732 658.285 214.309-365.714-181.396-292.571zM789.504 83.039l160.914 250.879 73.143 122.88 234.057-373.759h-468.114z" />
<glyph unicode="&#xe919;" glyph-name="newreview" horiz-adv-x="1063" d="M151 539.125c0 6.675 1.805 13.076 5.018 17.796s7.571 7.37 12.114 7.37h308.383c4.544 0 8.901-2.652 12.114-7.37s5.018-11.121 5.018-17.796c0-6.674-1.804-13.075-5.018-17.795s-7.571-7.37-12.114-7.37h-308.383c-4.544 0-8.901 2.651-12.114 7.37s-5.018 11.121-5.018 17.795zM151 413.294c0 6.675 1.805 13.076 5.018 17.796s7.571 7.37 12.114 7.37h308.383c4.544 0 8.901-2.652 12.114-7.37s5.018-11.121 5.018-17.796c0-6.674-1.804-13.075-5.018-17.795s-7.571-7.37-12.114-7.37h-308.383c-4.544 0-8.901 2.651-12.114 7.37s-5.018 11.121-5.018 17.795zM151 287.463c0 6.675 1.805 13.076 5.018 17.796s7.571 7.37 12.114 7.37h171.324c4.544 0 8.902-2.652 12.114-7.37s5.018-11.121 5.018-17.796c0-6.674-1.805-13.075-5.018-17.795s-7.571-7.37-12.114-7.37h-171.324c-4.544 0-8.901 2.651-12.114 7.37s-5.018 11.121-5.018 17.795zM535.171 664.838h-434.264c-13.382 0-26.213-5.314-35.676-14.78-9.46-9.46-14.777-22.294-14.777-35.673v-584.55l100.907 100.903c18.92 18.928 44.58 29.564 71.341 29.564h483.646c13.382 0 26.214 5.314 35.676 14.778 9.46 9.463 14.777 22.298 14.777 35.677v243.703l30.127 12.971 20.325-8.694v-247.979c0-26.764-10.628-52.426-29.556-71.354-18.922-18.921-44.589-29.556-71.35-29.556h-483.646c-13.379 0-26.211-5.314-35.671-14.778l-143.944-143.942c-3.525-3.537-8.019-5.95-12.914-6.92-4.894-0.985-9.971-0.489-14.581 1.42-2.328 0.962-4.486 2.265-6.409 3.856-1.889 1.552-3.55 3.375-4.923 5.43-2.776 4.15-4.259 9.030-4.259 14.018v645.454c0 26.764 10.631 52.426 29.554 71.353 18.926 18.92 44.592 29.554 71.353 29.554h430.453l-20.292-23.106 24.104-27.348zM953.484 745.934l6.609 71.259-70.183 15.875-36.794 61.646-66.188-28.302-66.187 28.302-36.83-61.708-70.139-15.671 6.597-71.102-47.418-53.992 47.418-53.799-6.617-71.511 70.196-15.877 36.741-61.559 66.177 28.491 66.25-28.328 36.794 61.645 70.183 15.876-6.609 71.259 47.376 53.748-47.376 53.748zM1062.788 692.185l-61.192-69.425 8.526-91.9-90.531-20.478-47.399-79.414-85.264 36.46-85.266-36.71-47.398 79.414-90.532 20.478 8.527 92.15-61.191 69.425 61.191 69.674-8.527 91.901 90.532 20.228 47.398 79.414 85.266-36.46 85.264 36.46 47.399-79.414 90.531-20.478-8.526-91.9 61.192-69.425z" />
<glyph unicode="&#xe91a;" glyph-name="monument" d="M475.803 945.004l-102.4-102.4c-7.7-7.7-12.745-17.655-14.401-28.419l-95.721-622.185h-109.682c-28.277 0-51.2-22.922-51.2-51.2v-102.4h-51.2c-28.277 0-51.2-22.922-51.2-51.2s22.923-51.2 51.2-51.2h921.6c28.278 0 51.2 22.922 51.2 51.2s-22.922 51.2-51.2 51.2h-51.2v102.4c0 28.278-22.922 51.2-51.2 51.2h-109.665l-95.724 622.185c-1.654 10.763-6.702 20.718-14.403 28.419l-102.4 102.4c-19.994 19.995-52.41 19.995-72.406 0zM204.8 38.4v51.2h101.608c0.577-0.010 1.151-0.010 1.725 0h407.75c0.573-0.010 1.147-0.010 1.725 0h101.591v-51.2h-614.4zM566.349 782.048l90.778-590.048h-290.24l90.777 590.048 54.342 54.344 54.344-54.344z" />
<glyph unicode="&#xe91b;" glyph-name="pencil" d="M53.893-40.664c4.365 0 8.731 0.539 13.042 1.617l215.579 53.895c9.485 2.371 18.163 7.276 25.061 14.174l662.53 662.528c20.372 20.372 31.582 47.427 31.582 76.207s-11.21 55.835-31.582 76.207l-85.477 85.477c-40.744 40.744-111.67 40.744-152.414 0l-662.53-662.528c-6.895-6.904-11.793-15.543-14.174-25.007l-53.895-215.579c-1.991-7.944-2.144-16.244-0.447-24.258s5.198-15.538 10.238-21.994c5.040-6.457 11.486-11.684 18.848-15.279 7.362-3.589 15.447-5.46 23.639-5.46zM808.421 853.235l85.477-85.477-85.477-85.477-85.477 85.477 85.477 85.477zM156.455 201.27l490.282 490.28 85.477-85.477-490.336-490.28-113.933-28.456 28.51 113.933z" />
<glyph unicode="&#xe91c;" glyph-name="person" horiz-adv-x="882" d="M436.053 467.052c-128 0-232.391 104.107-232.391 232.39 0 128 104.107 232.391 232.391 232.391s232.391-104.107 232.391-232.391c0-128.284-104.107-232.39-232.391-232.39zM436.053 874.66c-96.711 0-175.502-78.791-175.502-175.502s78.791-175.501 175.502-175.501c96.711 0 175.502 78.791 175.502 175.501s-78.791 175.502-175.502 175.502zM843.947-42.672c-15.644 0-28.444 12.8-28.444 28.444v101.831c0 46.933-18.204 91.022-51.484 124.018-32.711 32.711-77.938 51.484-124.018 51.484h-407.609c-46.080 0-91.307-18.773-124.018-51.484-33.28-32.996-51.484-77.084-51.484-124.018v-101.831c0-15.644-12.8-28.444-28.444-28.444s-28.444 12.8-28.444 28.444v101.831c0 62.009 24.178 120.32 67.982 164.124s102.116 67.982 164.124 67.982h407.893c62.009 0 120.32-24.178 164.124-67.982s67.982-102.116 67.982-164.124v-101.831c0.284-15.644-12.516-28.444-28.16-28.444z" />
<glyph unicode="&#xe91d;" glyph-name="send" horiz-adv-x="931" d="M34.49 957.118l859.322-472.622c3.649-2.011 6.693-4.962 8.811-8.546 2.118-3.589 3.235-7.675 3.235-11.841s-1.117-8.257-3.235-11.841c-2.118-3.584-5.162-6.54-8.811-8.546l-859.322-472.623c-3.543-1.95-7.533-2.942-11.577-2.881-4.044 0.065-8.001 1.178-11.483 3.235-3.481 2.062-6.366 4.99-8.371 8.504-2.004 3.51-3.059 7.485-3.060 11.529v945.244c0.001 4.044 1.055 8.018 3.060 11.531s4.889 6.442 8.371 8.5c3.481 2.058 7.439 3.173 11.483 3.235s8.034-0.93 11.577-2.879zM93.091 417.564v-307.991l644.655 354.537-644.655 354.536v-307.991h232.727v-93.090h-232.727z" />
<glyph unicode="&#xe91e;" glyph-name="skigoggles" horiz-adv-x="2048" d="M1582.545 773.818c103.331 0 186.182-82.851 186.182-186.182v-279.273c0-103.331-82.851-186.182-186.182-186.182h-207.593l-115.433 114.502c-69.818 71.68-163.84 108.916-263.447 108.916s-192.698-37.236-263.447-108.916l-114.502-114.502h-152.669c-103.331 0-186.182 82.851-186.182 186.182v279.273c0 103.331 82.851 186.182 186.182 186.182h1117.091zM1582.545 960h-1117.091c-98.757 0-193.469-39.231-263.301-109.063s-109.063-164.544-109.063-263.301h-93.091v-279.273h93.091c0-98.757 39.231-193.469 109.063-263.301 69.832-69.834 164.544-109.063 263.301-109.063h232.727c3.724 5.585 8.378 11.171 166.633 169.425 36.305 36.305 83.782 53.993 131.258 53.993 48.407 0 95.884-17.687 132.189-53.993l166.633-169.425h287.651c98.76 0 193.471 39.229 263.298 109.063 69.837 69.832 109.065 164.544 109.065 263.301h93.091v279.273h-93.091c0 98.757-39.229 193.469-109.065 263.301-69.827 69.831-164.538 109.063-263.298 109.063z" />
<glyph unicode="&#xe91f;" glyph-name="star" horiz-adv-x="1126" d="M530.835 931.623c10.4 31.058 54.33 31.058 64.73 0l104.663-312.511c4.625-13.808 17.497-23.16 32.058-23.294l329.557-2.966c32.754-0.294 46.329-42.076 20.006-61.566l-264.875-196.11c-11.701-8.663-16.62-23.798-12.247-37.687l99.017-314.344c9.841-31.242-25.699-57.064-52.367-38.048l-268.363 191.307c-11.858 8.451-27.771 8.451-39.629 0l-268.361-191.307c-26.671-19.016-62.211 6.806-52.37 38.048l99.017 314.344c4.375 13.889-0.543 29.024-12.245 37.687l-264.874 196.11c-26.324 19.49-12.749 61.273 20.003 61.566l329.559 2.966c14.561 0.133 27.433 9.486 32.058 23.294l104.663 312.511z" />
<glyph unicode="&#xe920;" glyph-name="sun" d="M512 294.4c40.735 0 79.805 16.184 108.611 44.989s44.989 67.876 44.989 108.611c0 40.737-16.184 79.806-44.989 108.612s-67.876 44.988-108.611 44.988c-40.737 0-79.806-16.183-108.612-44.988s-44.988-67.874-44.988-108.612c0-40.735 16.183-79.805 44.988-108.611s67.874-44.989 108.612-44.989zM512 192c-67.895 0-133.010 26.972-181.019 74.982-48.010 48.005-74.981 113.121-74.981 181.018 0 67.895 26.971 133.010 74.981 181.019s113.124 74.981 181.019 74.981c67.896 0 133.012-26.971 181.018-74.981 48.010-48.009 74.982-113.124 74.982-181.019s-26.972-133.012-74.982-181.018c-48.005-48.010-113.121-74.982-181.018-74.982zM512 960c13.578 0 26.604-5.394 36.204-14.996s14.996-22.625 14.996-36.204v-102.4c0-13.579-5.396-26.602-14.996-36.204s-22.625-14.996-36.204-14.996c-13.579 0-26.602 5.394-36.204 14.996s-14.996 22.625-14.996 36.204v102.4c0 13.579 5.394 26.602 14.996 36.204s22.625 14.996 36.204 14.996zM512 140.8c13.578 0 26.604-5.396 36.204-14.996s14.996-22.625 14.996-36.204v-102.4c0-13.578-5.396-26.604-14.996-36.204s-22.625-14.996-36.204-14.996c-13.579 0-26.602 5.396-36.204 14.996s-14.996 22.625-14.996 36.204v102.4c0 13.578 5.394 26.604 14.996 36.204s22.625 14.996 36.204 14.996zM51.2 499.2h102.4c13.579 0 26.602-5.394 36.204-14.996s14.996-22.625 14.996-36.204c0-13.578-5.394-26.604-14.996-36.204s-22.625-14.996-36.204-14.996h-102.4c-13.579 0-26.602 5.396-36.204 14.996s-14.996 22.625-14.996 36.204c0 13.579 5.394 26.602 14.996 36.204s22.625 14.996 36.204 14.996zM870.4 499.2h102.4c13.578 0 26.604-5.394 36.204-14.996s14.996-22.625 14.996-36.204c0-13.578-5.396-26.604-14.996-36.204s-22.625-14.996-36.204-14.996h-102.4c-13.578 0-26.604 5.396-36.204 14.996s-14.996 22.625-14.996 36.204c0 13.579 5.396 26.602 14.996 36.204s22.625 14.996 36.204 14.996zM874.035 810.035c9.6-9.602 14.991-22.622 14.991-36.198s-5.391-26.597-14.991-36.198l-72.397-72.397c-4.721-4.89-10.373-8.791-16.62-11.474s-12.964-4.096-19.763-4.155c-6.799-0.059-13.542 1.236-19.835 3.811s-12.006 6.376-16.814 11.184c-4.808 4.807-8.607 10.524-11.182 16.816s-3.871 13.034-3.814 19.832c0.061 6.798 1.475 13.517 4.157 19.763s6.584 11.896 11.474 16.62l72.397 72.397c9.6 9.598 22.62 14.991 36.198 14.991s26.598-5.392 36.198-14.991zM294.758 230.758c9.598-9.6 14.991-22.62 14.991-36.198s-5.392-26.598-14.991-36.198l-72.397-72.346c-4.723-4.89-10.373-8.791-16.62-11.474s-12.965-4.096-19.763-4.152c-6.798-0.061-13.54 1.234-19.832 3.809s-12.009 6.374-16.817 11.182c-4.807 4.808-8.609 10.522-11.183 16.814s-3.87 13.036-3.811 19.835c0.059 6.799 1.471 13.517 4.155 19.763s6.584 11.899 11.474 16.62l72.397 72.397c9.602 9.6 22.622 14.991 36.198 14.991s26.597-5.391 36.198-14.991v-0.051zM222.362 810.035l72.397-72.397c9.327-9.656 14.487-22.589 14.37-36.014s-5.501-26.266-14.994-35.759c-9.493-9.493-22.334-14.878-35.759-14.994s-26.358 5.044-36.014 14.37l-72.346 72.397c-8.947 9.721-13.79 22.525-13.517 35.734s5.643 25.801 14.985 35.143c9.342 9.342 21.934 14.711 35.143 14.985s26.013-4.57 35.734-13.517v0.051zM801.638 230.758l72.397-72.397c9.329-9.656 14.49-22.589 14.372-36.014s-5.504-26.266-14.996-35.758c-9.492-9.492-22.333-14.879-35.758-14.996s-26.358 5.043-36.014 14.372l-72.397 72.397c-4.89 4.721-8.791 10.373-11.474 16.62s-4.096 12.964-4.157 19.763c-0.056 6.799 1.239 13.542 3.814 19.835s6.374 12.006 11.182 16.814c4.808 4.808 10.522 8.607 16.814 11.182s13.036 3.871 19.835 3.814c6.799-0.061 13.517-1.475 19.763-4.157s11.899-6.584 16.62-11.474z" />
<glyph unicode="&#xe921;" glyph-name="twitter" horiz-adv-x="1280" d="M1245.645 792.839l-131.539-21.436 87.693 107.178-153.466-42.871c-197.306 214.355-504.235-21.436-416.541-214.356-350.774 0-526.161 257.227-526.161 257.227s-131.54-192.92 87.693-342.969l-131.54 42.871c0-128.613 87.694-214.355 241.157-257.226h-153.463c87.693-171.484 241.156-171.484 241.156-171.484s-131.54-107.181-372.697-107.181c723.471-342.963 1161.935 300.1 1096.168 643.069l131.539 107.178z" />
<glyph unicode="&#xe922;" glyph-name="whatsapp" d="M707.072 336.709c-11.878 6.011-69.746 34.248-80.559 38.278-10.812 3.851-18.667 5.866-26.546-6.014-7.703-11.584-30.398-38.1-37.331-45.834s-13.748-8.325-25.451-3.084c-11.881 6.018-49.834 18.372-94.898 58.784-35.198 31.317-58.634 69.892-65.596 81.773-6.933 11.733-0.77 18.369 5.096 24.236 5.392 5.392 11.881 13.57 17.895 20.681 5.718 7.11 7.555 11.881 11.733 19.584 3.851 8.326 1.867 14.814-1.067 20.681s-26.546 64.026-36.412 87.195c-9.422 22.991-19.288 20.058-26.547 20.058-6.785 0.622-14.665 0.622-22.517 0.622s-20.681-2.933-31.495-14.192c-10.814-11.881-41.361-40.264-41.361-97.683 0-57.567 42.279-113.268 48.145-121.593 6.014-7.703 83.166-126.215 201.529-177.144 28.235-11.884 50.16-18.992 67.285-24.859 28.235-8.951 54.013-7.704 74.366-4.771 22.516 3.704 69.746 28.564 79.637 56.32 10.047 27.943 10.047 51.080 7.114 56.326-2.933 5.391-10.638 8.325-22.516 13.571l-0.506-2.933zM492.418 45.67h-0.622c-70.071 0-139.34 18.992-199.841 54.489l-14.191 8.475-148.14-38.581 39.82 144.143-9.57 14.812c-39.125 62.211-59.881 134.204-59.878 207.693 0 215.099 176.079 390.555 392.718 390.555 104.943 0 203.395-40.887 277.467-114.956 36.539-36.104 65.524-79.124 85.257-126.549 19.739-47.424 29.835-98.305 29.696-149.673-0.295-214.95-176.224-390.409-392.568-390.409h-0.148zM826.501 768.623c-90.124 87.047-208.637 136.259-334.705 136.259-260.015 0-471.736-210.803-471.884-469.869 0-82.721 21.599-163.43 62.96-234.863l-66.959-243.363 250.297 65.271c69.338-37.382 146.843-57.049 225.617-57.242h0.148c260.16 0 471.881 210.805 472.032 470.049 0 125.444-48.917 243.512-138.095 332.248l0.59 1.511z" />
<glyph unicode="&#xe923;" glyph-name="login" horiz-adv-x="717" d="M340.019 400.896h-288.819c-13.579 0-26.602 5.996-36.204 16.66-9.602 10.67-14.996 25.139-14.996 40.228s5.394 29.558 14.996 40.226 22.625 16.663 36.204 16.663h288.819l-57.344 63.716c-9.334 10.722-14.503 25.088-14.396 40.005s5.482 29.189 14.969 39.744c9.486 10.555 22.324 16.548 35.749 16.689s26.361-5.584 36.024-15.94l144.845-160.825c4.779-5.272 8.571-11.543 11.16-18.45s3.919-14.316 3.919-21.798c0-7.483-1.331-14.893-3.919-21.799s-6.381-13.179-11.16-18.447l-144.845-160.886c-9.693-10.112-22.548-15.642-35.844-15.411s-25.99 6.2-35.396 16.64c-9.406 10.445-14.786 24.545-15.002 39.322-0.216 14.771 4.75 29.056 13.846 39.834l57.395 63.831zM665.6 960c13.578 0 26.604-5.994 36.204-16.662s14.996-25.139 14.996-40.226v-910.223c0-15.089-5.396-29.558-14.996-40.228-9.6-10.665-22.625-16.66-36.204-16.66s-26.604 5.996-36.204 16.66c-9.6 10.67-14.996 25.139-14.996 40.228v910.223c0 15.088 5.396 29.558 14.996 40.226s22.625 16.662 36.204 16.662z" />
</font>
</defs>
</svg>
