<svg id="Layer_1" width="300" data-name="Layer 1" xmlns="http://www.w3.org/2000/svg" viewBox="0 0 286 113"><defs><style>.cls-1{fill:#00aeef;}</style></defs><title>Untitled-3</title><path class="cls-1" d="M46.41,45.2V41.78h9.32v31q0,9-5.75,13.79T35.21,91.33q-11.38,0-17.57-7.09v-.8l4.76-5.89h.84a14.56,14.56,0,0,0,5.24,3.89,16.06,16.06,0,0,0,6.8,1.45,11.75,11.75,0,0,0,7.06-2,7,7,0,0,0,2.8-6.08V72.49a17.28,17.28,0,0,1-10.51,3.35,17.42,17.42,0,0,1-12.67-5,16.67,16.67,0,0,1-5.05-12.44A17,17,0,0,1,22,45.86a17.41,17.41,0,0,1,12.67-5A17.66,17.66,0,0,1,46.41,45.2ZM30.73,64.81a8.53,8.53,0,0,0,6.37,2.51,8.42,8.42,0,0,0,6.33-2.51,8.72,8.72,0,0,0,2.44-6.44,9,9,0,0,0-2.48-6.47A8.58,8.58,0,0,0,37,49.39,8.39,8.39,0,0,0,30.7,51.9a9,9,0,0,0-2.48,6.47A8.57,8.57,0,0,0,30.73,64.81ZM99.67,63H72a8.65,8.65,0,0,0,3.12,6.29,10.67,10.67,0,0,0,6.77,2.18,13.53,13.53,0,0,0,10.3-4.11H93l5.16,5v.87a17.78,17.78,0,0,1-7.46,5.1A25.63,25.63,0,0,1,81.4,80a20.84,20.84,0,0,1-14.7-5.42,18.29,18.29,0,0,1-5.85-14.05,18.94,18.94,0,0,1,5.6-14,19.3,19.3,0,0,1,14.26-5.56,19,19,0,0,1,13.72,5.23A18.81,18.81,0,0,1,99.88,60,20,20,0,0,1,99.67,63ZM80.42,49a8.19,8.19,0,0,0-5.64,2,8.27,8.27,0,0,0-2.69,5.36H88.68a8.52,8.52,0,0,0-2.29-5A7.88,7.88,0,0,0,80.42,49ZM138,74.38A20.56,20.56,0,0,1,123.2,80a20.64,20.64,0,0,1-14.81-5.57,18.45,18.45,0,0,1-5.86-14,18.45,18.45,0,0,1,5.86-14,20.63,20.63,0,0,1,14.81-5.56A20.56,20.56,0,0,1,138,46.44a18.57,18.57,0,0,1,5.79,14A18.57,18.57,0,0,1,138,74.38Zm-21.39-7a9.36,9.36,0,0,0,13.25,0,9.6,9.6,0,0,0,2.62-6.91,9.83,9.83,0,0,0-2.62-6.95,9.4,9.4,0,0,0-13.25,0A9.83,9.83,0,0,0,114,60.41,9.5,9.5,0,0,0,116.57,67.36Zm78-26.48a14.81,14.81,0,0,1,11.17,4.4Q210,49.72,210,57V79H198.5V57.79a7.61,7.61,0,0,0-1.71-5.2,6,6,0,0,0-4.7-1.93,6.65,6.65,0,0,0-5,2,7.13,7.13,0,0,0-1.92,5.16V79H173.68V57.79A7.49,7.49,0,0,0,172,52.57a6.11,6.11,0,0,0-4.75-1.91,6.5,6.5,0,0,0-4.93,2,7.15,7.15,0,0,0-1.87,5.16V79H148.87V41.78h9.68v4.7a14.26,14.26,0,0,1,11.71-5.6q7.68,0,11.75,5.38A16.15,16.15,0,0,1,194.6,40.88ZM228,33.82a6.89,6.89,0,0,1-5.06,2.07,6.7,6.7,0,0,1-5-2.07,6.83,6.83,0,0,1-2.07-5,7,7,0,0,1,2.07-5.09,6.7,6.7,0,0,1,5-2.07A6.89,6.89,0,0,1,228,23.74a7,7,0,0,1,2.08,5.09A6.84,6.84,0,0,1,228,33.82ZM228.65,79H217.19V41.78h11.46Zm22.87-38.16q7.75,0,12.66,3.81c3.28,2.58,4.91,6.55,4.91,11.94V79h-9.31v-3.5A17.08,17.08,0,0,1,248,80q-6.56,0-10.62-3.31a10.46,10.46,0,0,1-4.08-8.55,11.07,11.07,0,0,1,4.4-9.21q4.44-3.45,11.61-3.45a26.09,26.09,0,0,1,9.09,1.78V55.5A5.21,5.21,0,0,0,256,51a10.56,10.56,0,0,0-6.15-1.71,14.18,14.18,0,0,0-9.09,3.06H240l-3.71-5.82v-.91a20.9,20.9,0,0,1,7.17-3.53A28.69,28.69,0,0,1,251.52,40.88Zm-.84,31.75a8.44,8.44,0,0,0,5.64-2,5.63,5.63,0,0,0,2.33-4.51v-2a18.3,18.3,0,0,0-7.57-1.85,8,8,0,0,0-5,1.45,4.64,4.64,0,0,0-1.87,3.86A4.4,4.4,0,0,0,246,71.25,7.45,7.45,0,0,0,250.68,72.63Z"/></svg>