<svg width="226" height="226" viewBox="0 0 226 226" fill="none" xmlns="http://www.w3.org/2000/svg">
<g style="mix-blend-mode:multiply" opacity="0.03">
<circle cx="17" cy="17" r="17" fill="black"/>
<circle cx="17" cy="65" r="17" fill="black"/>
<circle cx="17" cy="113" r="17" fill="black"/>
<circle cx="17" cy="161" r="17" fill="black"/>
<circle cx="17" cy="209" r="17" fill="black"/>
<circle cx="65" cy="17" r="17" fill="black"/>
<circle cx="65" cy="65" r="17" fill="black"/>
<circle cx="65" cy="113" r="17" fill="black"/>
<circle cx="65" cy="161" r="17" fill="black"/>
<circle cx="65" cy="209" r="17" fill="black"/>
<circle cx="113" cy="17" r="17" fill="black"/>
<circle cx="113" cy="65" r="17" fill="black"/>
<circle cx="113" cy="113" r="17" fill="black"/>
<circle cx="113" cy="161" r="17" fill="black"/>
<circle cx="113" cy="209" r="17" fill="black"/>
<circle cx="161" cy="17" r="17" fill="black"/>
<circle cx="161" cy="65" r="17" fill="black"/>
<circle cx="161" cy="113" r="17" fill="black"/>
<circle cx="161" cy="161" r="17" fill="black"/>
<circle cx="161" cy="209" r="17" fill="black"/>
<circle cx="209" cy="17" r="17" fill="black"/>
<circle cx="209" cy="65" r="17" fill="black"/>
<circle cx="209" cy="113" r="17" fill="black"/>
<circle cx="209" cy="161" r="17" fill="black"/>
<circle cx="209" cy="209" r="17" fill="black"/>
</g>
</svg>
