<svg id="Layer_1" data-name="Layer 1" xmlns="http://www.w3.org/2000/svg" viewBox="0 0 200 50"><defs><style>.cls-1{fill:#61b8c0;}.cls-2{fill:#4d4d4d;}</style></defs><title>logo-travelarg</title><polygon class="cls-1" points="0.85 7.01 7.03 7.01 7.03 49.33 14.18 49.33 14.18 7.01 20.35 7.01 20.35 0.46 0.85 0.46 0.85 7.01"/><path class="cls-1" d="M44,20.94V9.06c0-5.71-2.6-8.6-7.73-8.6h-13V49.33h7.15V29.88h3.25l4.22,19.45h6.84L40.25,29.12C42.75,27.88,44,25.13,44,20.94ZM30.47,7h3.87c1.73,0,2.53,1,2.53,3.13V20.53c0,2.14-.8,3.13-2.53,3.13H30.47Z"/><path class="cls-1" d="M62.11.46H57.28c-5.36,0-8.07,2.89-8.07,8.6V49.33h7.15V31.69H63V49.33h7.16V9.06C70.18,3.35,67.46.46,62.11.46Zm.91,9V25.14H56.36V9.47A2.14,2.14,0,0,1,58.82,7h1.75A2.14,2.14,0,0,1,63,9.47Z"/><polygon class="cls-1" points="84.98 35.03 80.06 0.46 72.95 0.46 80.85 49.33 89.1 49.33 97 0.46 89.9 0.46 84.98 35.03"/><polygon class="cls-1" points="99.24 49.33 115.92 49.33 115.92 42.78 106.39 42.78 106.39 27.46 114.84 27.46 114.84 20.91 106.39 20.91 106.39 7.01 115.92 7.01 115.92 0.46 99.24 0.46 99.24 49.33"/><polygon class="cls-1" points="126.98 0.46 119.83 0.46 119.83 49.33 135.83 49.33 135.83 42.78 126.98 42.78 126.98 0.46"/><path class="cls-2" d="M149.72,8.87h-4q-6.42,0-6.42,6.87V49h5.36V34.28h6.14V49h5.36V15.74Q156.14,8.87,149.72,8.87Zm1.06,20.55h-6.14V16.07A2.07,2.07,0,0,1,147,13.73h1.46a2.07,2.07,0,0,1,2.34,2.34Z"/><path class="cls-2" d="M177.54,25.62V15.74q0-6.87-6.15-6.87h-10.5V49h5.36V32.77h3.24L173,49h5.08l-3.74-16.7C176.47,31.34,177.54,29.12,177.54,25.62Zm-5.37-.33c0,1.93-.8,2.9-2.4,2.9h-3.52V13.73h3.52c1.6,0,2.4,1,2.4,2.9Z"/><path class="cls-2" d="M198.42,20.21V15.85q0-7-6.81-7h-3.69q-6.19,0-6.2,6.87V42.21q0,6.76,6.2,6.76h10.5V29.42h-8.15v4.86h2.79v9.83h-3.63c-1.56,0-2.34-1-2.34-2.9V16.63c0-1.94.78-2.9,2.34-2.9h1.34c1.53,0,2.29,1,2.29,2.9v3.58Z"/></svg>